<svg width="28" height="30" viewBox="0 0 28 30" fill="none" xmlns="http://www.w3.org/2000/svg">
<path d="M26 12.3332H2M26 15.6665V10.7332C26 8.49296 26 7.37286 25.564 6.51721C25.1805 5.76456 24.5686 5.15264 23.816 4.76914C22.9603 4.33317 21.8402 4.33317 19.6 4.33317H8.4C6.15979 4.33317 5.03969 4.33317 4.18404 4.76914C3.43139 5.15264 2.81947 5.76456 2.43597 6.51721C2 7.37286 2 8.49296 2 10.7332V21.9332C2 24.1734 2 25.2935 2.43597 26.1491C2.81947 26.9018 3.43139 27.5137 4.18404 27.8972C5.03969 28.3332 6.15979 28.3332 8.4 28.3332H14M19.3333 1.6665V6.99984M8.6667 1.6665V6.99984M17.3333 24.3332L20 26.9998L26 20.9998" stroke="#3585FF" stroke-width="3" stroke-linecap="round" stroke-linejoin="round"/>
</svg>
