<svg width="20" height="19" viewBox="0 0 20 19" fill="none" xmlns="http://www.w3.org/2000/svg">
<path d="M6.625 9C6.625 9.09946 6.58549 9.19484 6.51517 9.26517C6.44484 9.33549 6.34946 9.375 6.25 9.375C6.15054 9.375 6.05516 9.33549 5.98484 9.26517C5.91451 9.19484 5.875 9.09946 5.875 9C5.875 8.90054 5.91451 8.80516 5.98484 8.73483C6.05516 8.66451 6.15054 8.625 6.25 8.625C6.34946 8.625 6.44484 8.66451 6.51517 8.73483C6.58549 8.80516 6.625 8.90054 6.625 9ZM6.625 9H6.25M10.375 9C10.375 9.09946 10.3355 9.19484 10.2652 9.26517C10.1948 9.33549 10.0995 9.375 10 9.375C9.90054 9.375 9.80516 9.33549 9.73483 9.26517C9.66451 9.19484 9.625 9.09946 9.625 9C9.625 8.90054 9.66451 8.80516 9.73483 8.73483C9.80516 8.66451 9.90054 8.625 10 8.625C10.0995 8.625 10.1948 8.66451 10.2652 8.73483C10.3355 8.80516 10.375 8.90054 10.375 9ZM10.375 9H10M14.125 9C14.125 9.09946 14.0855 9.19484 14.0152 9.26517C13.9448 9.33549 13.8495 9.375 13.75 9.375C13.6505 9.375 13.5552 9.33549 13.4848 9.26517C13.4145 9.19484 13.375 9.09946 13.375 9C13.375 8.90054 13.4145 8.80516 13.4848 8.73483C13.5552 8.66451 13.6505 8.625 13.75 8.625C13.8495 8.625 13.9448 8.66451 14.0152 8.73483C14.0855 8.80516 14.125 8.90054 14.125 9ZM14.125 9H13.75M19 9C19 13.556 14.97 17.25 10 17.25C9.13718 17.251 8.27804 17.1377 7.445 16.913C6.27076 17.7389 4.83833 18.1141 3.41 17.97C3.25119 17.9547 3.09307 17.933 2.936 17.905C3.42887 17.3241 3.76547 16.6272 3.914 15.88C4.004 15.423 3.781 14.979 3.447 14.654C1.93 13.178 1 11.189 1 9C1 4.444 5.03 0.75 10 0.75C14.97 0.75 19 4.444 19 9Z" stroke="#3585FF" stroke-width="1.5" stroke-linecap="round" stroke-linejoin="round"/>
</svg>
