<svg width="19" height="20" viewBox="0 0 19 20" fill="none" xmlns="http://www.w3.org/2000/svg">
<path d="M7.25 7V3.25C7.25 2.65326 7.48705 2.08097 7.90901 1.65901C8.33097 1.23705 8.90326 1 9.5 1H15.5C16.0967 1 16.669 1.23705 17.091 1.65901C17.5129 2.08097 17.75 2.65326 17.75 3.25V16.75C17.75 17.3467 17.5129 17.919 17.091 18.341C16.669 18.7629 16.0967 19 15.5 19H9.5C8.90326 19 8.33097 18.7629 7.90901 18.341C7.48705 17.919 7.25 17.3467 7.25 16.75V13M11 7L14 10M14 10L11 13M14 10H1.25" stroke="#3585FF" stroke-width="1.5" stroke-linecap="round" stroke-linejoin="round"/>
</svg>
