<svg width="22" height="22" viewBox="0 0 22 22" fill="none" xmlns="http://www.w3.org/2000/svg">
<path d="M1.25 5.75C1.25 14.034 7.966 20.75 16.25 20.75H18.5C19.0967 20.75 19.669 20.5129 20.091 20.091C20.5129 19.669 20.75 19.0967 20.75 18.5V17.128C20.75 16.612 20.399 16.162 19.898 16.037L15.475 14.931C15.035 14.821 14.573 14.986 14.302 15.348L13.332 16.641C13.05 17.017 12.563 17.183 12.122 17.021C10.4849 16.4191 8.99815 15.4686 7.76478 14.2352C6.53141 13.0018 5.58087 11.5151 4.979 9.878C4.817 9.437 4.983 8.95 5.359 8.668L6.652 7.698C7.015 7.427 7.179 6.964 7.069 6.525L5.963 2.102C5.90214 1.85869 5.76172 1.6427 5.56405 1.48834C5.36638 1.33397 5.1228 1.25008 4.872 1.25H3.5C2.90326 1.25 2.33097 1.48705 1.90901 1.90901C1.48705 2.33097 1.25 2.90326 1.25 3.5V5.75Z" stroke="#3585FF" stroke-width="1.5" stroke-linecap="round" stroke-linejoin="round"/>
</svg>
