<svg width="20" height="20" viewBox="0 0 20 20" fill="none" xmlns="http://www.w3.org/2000/svg">
<path d="M15.982 16.7249C15.2833 15.7998 14.3793 15.0496 13.3412 14.5333C12.3031 14.0171 11.1594 13.7489 10 13.7499C8.84066 13.7489 7.6969 14.0171 6.65883 14.5333C5.62077 15.0496 4.71675 15.7998 4.01801 16.7249M15.982 16.7249C17.3455 15.5121 18.3071 13.9135 18.7412 12.141C19.1753 10.3686 19.0603 8.50604 18.4115 6.80043C17.7627 5.09482 16.6107 3.62673 15.1084 2.59085C13.6061 1.55497 11.8244 1.00024 9.99951 1.00024C8.17467 1.00024 6.39295 1.55497 4.89062 2.59085C3.38829 3.62673 2.23634 5.09482 1.58755 6.80043C0.938753 8.50604 0.823765 10.3686 1.25783 12.141C1.6919 13.9135 2.65451 15.5121 4.01801 16.7249M15.982 16.7249C14.336 18.1931 12.2056 19.0031 10 18.9999C7.79404 19.0033 5.66425 18.1934 4.01801 16.7249M13 7.74995C13 8.5456 12.6839 9.30866 12.1213 9.87127C11.5587 10.4339 10.7957 10.7499 10 10.7499C9.20436 10.7499 8.4413 10.4339 7.87869 9.87127C7.31608 9.30866 7.00001 8.5456 7.00001 7.74995C7.00001 6.9543 7.31608 6.19124 7.87869 5.62863C8.4413 5.06602 9.20436 4.74995 10 4.74995C10.7957 4.74995 11.5587 5.06602 12.1213 5.62863C12.6839 6.19124 13 6.9543 13 7.74995Z" stroke="#3585FF" stroke-width="1.5" stroke-linecap="round" stroke-linejoin="round"/>
</svg>
