<svg width="19" height="22" viewBox="0 0 19 22" fill="none" xmlns="http://www.w3.org/2000/svg">
<path d="M13 16V19.375C13 19.996 12.496 20.5 11.875 20.5H2.125C1.82663 20.5 1.54048 20.3815 1.3295 20.1705C1.11853 19.9595 1 19.6734 1 19.375V6.625C1 6.004 1.504 5.5 2.125 5.5H4C4.50257 5.49966 5.0043 5.54114 5.5 5.624M13 16H16.375C16.996 16 17.5 15.496 17.5 14.875V10C17.5 5.54 14.257 1.839 10 1.124C9.5043 1.04114 9.00257 0.99966 8.5 1H6.625C6.004 1 5.5 1.504 5.5 2.125V5.624M13 16H6.625C6.32663 16 6.04048 15.8815 5.8295 15.6705C5.61853 15.4595 5.5 15.1734 5.5 14.875V5.624M17.5 12.25V10.375C17.5 9.4799 17.1444 8.62145 16.5115 7.98852C15.8786 7.35558 15.0201 7 14.125 7H12.625C12.3266 7 12.0405 6.88148 11.8295 6.6705C11.6185 6.45952 11.5 6.17337 11.5 5.875V4.375C11.5 3.93179 11.4127 3.49292 11.2431 3.08345C11.0735 2.67397 10.8249 2.30191 10.5115 1.98852C10.1981 1.67512 9.82603 1.42652 9.41656 1.25691C9.00708 1.0873 8.56821 1 8.125 1H7" stroke="#3585FF" stroke-width="1.5" stroke-linecap="round" stroke-linejoin="round"/>
</svg>
