<svg width="20" height="20" viewBox="0 0 20 20" fill="none" xmlns="http://www.w3.org/2000/svg">
<path d="M8.34 13.84C7.652 13.78 6.954 13.75 6.25 13.75H5.5C4.30653 13.75 3.16193 13.2759 2.31802 12.432C1.47411 11.5881 1 10.4435 1 9.25C1 8.05653 1.47411 6.91193 2.31802 6.06802C3.16193 5.22411 4.30653 4.75 5.5 4.75H6.25C6.954 4.75 7.652 4.72 8.34 4.66M8.34 13.84C8.593 14.802 8.924 15.732 9.325 16.623C9.572 17.173 9.385 17.833 8.862 18.134L8.205 18.514C7.654 18.832 6.945 18.631 6.678 18.053C6.04429 16.682 5.56146 15.2463 5.238 13.771M8.34 13.84C7.94698 12.3417 7.74868 10.799 7.75 9.25C7.75 7.664 7.955 6.126 8.34 4.66M8.34 13.84C11.4215 14.1041 14.4222 14.9651 17.175 16.375M8.34 4.66C11.4215 4.39592 14.4223 3.53493 17.175 2.125M17.175 16.375C17.057 16.755 16.93 17.129 16.795 17.5M17.175 16.375C17.719 14.6216 18.0592 12.8113 18.189 10.98M17.175 2.125C17.0577 1.74689 16.931 1.37177 16.795 1M17.175 2.125C17.719 3.87844 18.0592 5.6887 18.189 7.52M18.189 7.52C18.684 7.933 19 8.555 19 9.25C19 9.945 18.684 10.567 18.189 10.98M18.189 7.52C18.2711 8.67187 18.2711 9.82813 18.189 10.98" stroke="#3585FF" stroke-width="1.5" stroke-linecap="round" stroke-linejoin="round"/>
</svg>
