<svg width="30" height="30" viewBox="0 0 30 30" fill="none" xmlns="http://www.w3.org/2000/svg">
<path d="M26.25 12.4998H3.75M26.25 15.6248V10.9998C26.25 8.89956 26.25 7.84947 25.8412 7.0473C25.4817 6.34169 24.9081 5.76801 24.2025 5.40848C23.4003 4.99976 22.3502 4.99976 20.25 4.99976H9.75C7.6498 4.99976 6.59971 4.99976 5.79754 5.40848C5.09193 5.76801 4.51825 6.34169 4.15872 7.0473C3.75 7.84947 3.75 8.89956 3.75 10.9998V21.4998C3.75 23.6 3.75 24.6501 4.15872 25.4522C4.51825 26.1578 5.09193 26.7315 5.79754 27.091C6.59971 27.4998 7.6498 27.4998 9.75 27.4998H15M20 2.49976V7.49976M10 2.49976V7.49976M18.125 23.7498L20.625 26.2497L26.25 20.6247" stroke="#38B6FF" stroke-width="1.5" stroke-linecap="round" stroke-linejoin="round"/>
</svg>
