<svg width="700" height="652" viewBox="0 0 700 652" fill="none" xmlns="http://www.w3.org/2000/svg">
<path d="M526.101 0H173.899C77.8574 0 0 72.5186 0 161.975V490.025C0 579.481 77.8574 652 173.899 652H526.101C622.143 652 700 579.481 700 490.025V161.975C700 72.5186 622.143 0 526.101 0Z" fill="url(#paint0_linear_130_63)"/>
<path d="M478.463 166H347.019V173.482H371.235C380.958 173.482 388.84 181.364 388.84 191.087V433.953C388.84 449.659 376.108 462.391 360.401 462.391H342V471H388.832H414.058H436.637H483.482V462.485H465.08C449.374 462.485 436.642 449.753 436.642 434.046V373.294H453.22C466.41 373.294 479.51 371.111 491.988 366.833C498.916 364.458 505.611 361.451 511.989 357.85L517.476 354.753L528.825 347.775L533.183 344.833C548.11 334.758 558.953 319.687 563.76 302.331C566.002 288.738 567.129 274.984 567.129 261.207V240.208V198.679V197.751C567.129 183.616 577.052 171.424 590.892 168.553L601 166H564.824C540.535 166 520.845 185.69 520.845 209.979V236.633V281.907V292.954C520.845 299.183 520.102 305.39 518.632 311.443L517.581 315.769C516.104 321.854 513.565 327.63 510.082 332.834C501.487 345.674 487.742 354.152 472.41 356.068L436.637 360.54L436.642 191.087C436.642 181.364 444.524 173.482 454.246 173.482H478.463V166Z" fill="#0D2054" stroke="#0D2054"/>
<path d="M285.211 195.87L282.388 193.169C260.417 172.152 236.592 153.162 211.204 136.432L197.713 129.193L184.8 123.478L173.236 118.906L167.262 117.001L162.058 115.858L154.735 114.524L147.989 113.572L138.16 113L132.764 113.191C129.684 113.698 126.644 114.424 123.668 115.363L119.08 116.81C108.135 120.635 101.672 131.931 103.921 143.305L105.011 148.815L111.799 174.788C116.187 191.58 118.872 208.771 119.813 226.1L121.405 260.337L121.867 271.003C122.258 280.039 125.332 288.753 130.698 296.034C138.722 306.922 151.174 313.677 164.677 314.466L176.953 315.184C178.724 315.385 179.146 317.77 177.55 318.565L162.8 325.915L147.233 334.091L138.528 339.01C136.436 340.192 134.494 341.622 132.744 343.268L129.653 346.173C128.223 347.518 127.133 349.184 126.473 351.033C124.796 355.732 126.102 360.978 129.786 364.341L132.7 367.002C133.54 367.769 134.273 368.644 134.881 369.606L135.051 369.875C136.23 371.739 136.856 373.9 136.856 376.107C136.856 379.413 135.452 382.565 132.993 384.776L127.403 389.805C126.062 391.01 125.297 392.728 125.297 394.531C125.297 396.58 126.285 398.503 127.95 399.697L141.727 409.571C146.088 412.696 148.343 417.991 147.576 423.301C147.382 424.644 146.99 425.971 146.429 427.207C143.523 433.6 145.302 441.254 150.807 445.615L153.883 448.052C162.195 454.636 164.041 466.508 158.12 475.305L146.172 493.057L144.401 495.109C141.859 498.055 139.101 500.808 136.15 503.344L129.982 509.25L123.529 514.978C121.549 516.735 119.875 518.809 118.575 521.115L117.857 522.346C115.793 525.89 115.837 530.281 117.973 533.782L118.056 533.919C119.082 535.601 120.557 536.964 122.314 537.855C123.8 538.608 125.442 539 127.108 539H128.219C133.829 539 138.986 535.921 141.647 530.983L149.079 517.19C151.166 513.318 153.855 509.803 157.045 506.775L165.674 498.587C169.416 495.036 174.378 493.057 179.536 493.057H180.321C184.699 493.057 188.928 494.648 192.22 497.534C195.512 500.42 199.741 502.011 204.119 502.011H209.59C212.767 502.011 215.862 503.022 218.425 504.899C219.262 505.512 220.033 506.21 220.725 506.982L225.092 511.852C226.443 513.359 228.331 514.279 230.351 514.415C233.561 514.632 236.572 512.847 237.922 509.927L241.025 503.217C241.571 502.035 242.25 500.92 243.048 499.892L243.296 499.574C246.394 495.583 251.163 493.247 256.216 493.247C262.511 493.247 268.247 489.635 270.968 483.959L278.658 467.91L289.309 446.977L290.606 444.611C293.812 438.762 300.475 435.708 306.999 437.098L331.08 439.335L334.269 439.764C334.967 439.859 335.674 439.867 336.374 439.79L337.994 439.612C339.593 439.437 341.025 438.543 341.885 437.184C342.258 436.594 342.511 435.935 342.629 435.246L342.757 434.495C342.844 433.989 342.887 433.477 342.887 432.964V432.552C342.887 431.527 342.774 430.505 342.55 429.504L341.161 423.295C340.752 421.468 341.063 419.555 342.03 417.952C342.594 417.017 342.94 415.967 343.043 414.88L343.064 414.658C343.064 414.505 343.222 412.473 344.571 410.949L346.175 409.137C347.658 407.462 348.006 405.065 347.059 403.037L346.736 402.346C345.346 399.37 347.138 395.883 350.366 395.279C350.868 395.185 351.353 395.015 351.804 394.775L351.982 394.681C354.448 393.368 355.765 390.596 355.225 387.855L353.505 379.126C353.335 378.263 353.431 377.37 353.78 376.563C354.181 375.64 354.891 374.884 355.787 374.427L358.66 372.961C359.795 372.382 360.828 371.62 361.715 370.706L363.336 369.037C364.403 367.938 365 366.467 365 364.936C365 362.975 364.024 361.143 362.397 360.05L358.106 357.166C356.335 355.975 355.043 354.196 354.459 352.143C353.921 350.25 354.015 348.233 354.729 346.399L355.556 344.273C356.065 343.267 356.361 342.168 356.427 341.044L357.098 329.604C356.593 320.363 353.706 311.41 348.718 303.614L342.065 293.217L328.767 267.69L315.469 237.59L306.411 222.731L285.211 195.87Z" fill="#0D2054" stroke="#0D2054"/>
<defs>
<linearGradient id="paint0_linear_130_63" x1="350" y1="-2.05031" x2="350" y2="654.05" gradientUnits="userSpaceOnUse">
<stop stop-color="white"/>
<stop offset="1" stop-color="#D0D5DD"/>
</linearGradient>
</defs>
</svg>
