<svg width="601" height="502" viewBox="0 0 601 502" fill="none" xmlns="http://www.w3.org/2000/svg">
<path d="M453.5 62.9752H296.35V71.7636H325.671C337.091 71.7636 346.35 81.0218 346.35 92.4422V377.12C346.35 395.898 331.127 411.12 312.35 411.12H290.35V421.232H346.34H376.5H403.493H459.5V411.23H437.5C418.722 411.23 403.5 396.008 403.5 377.23V306.466H423.405C439.122 306.466 454.734 303.907 469.63 298.89C477.94 296.091 485.978 292.543 493.646 288.289L500.141 284.687L513.71 276.49L519.221 272.836C536.868 261.134 549.732 243.491 555.477 223.111C558.158 207.145 559.505 190.984 559.505 174.795V150.14V101.36V100.757C559.505 83.8846 571.382 69.3433 587.915 65.974L600 62.9752H556.749C527.71 62.9752 504.17 86.5159 504.17 115.555V145.942V199.121V212.051C504.17 219.397 503.279 226.717 501.516 233.848L500.319 238.691C498.519 245.972 495.435 252.874 491.212 259.073C480.986 274.082 464.789 283.956 446.763 286.17L403.493 291.484L403.5 92.4422C403.5 81.0218 412.758 71.7636 424.178 71.7636H453.5V62.9752Z" fill="#0D2054" stroke="#0D2054"/>
<path d="M221.972 98.2647L218.732 95.2302C192.304 70.4717 163.703 48.1392 133.275 28.5024L117.107 20.0058L101.631 13.2978L87.7724 7.93151L80.612 5.69554L74.3755 4.35396L65.5983 2.78878L57.514 1.67079L45.734 1L39.2666 1.2236L33.7231 2.11799L22.867 5.47194C9.78323 9.94967 2.04684 23.4335 4.78421 36.9887L6.00548 43.0363L14.1509 73.5602C19.4027 93.2407 22.6178 113.409 23.7456 133.747L25.6537 173.931L26.1894 186.053C26.6691 196.909 30.4227 207.366 36.9567 216.049C46.4788 228.703 61.0888 236.523 76.8991 237.428L92.2262 238.305C94.32 238.537 94.8099 241.362 92.9167 242.286L75.2651 250.9L56.6078 260.496L46.1208 266.3C43.6497 267.668 41.3509 269.326 39.2732 271.239L35.4968 274.716C33.8106 276.269 32.5211 278.203 31.7363 280.357C29.7274 285.869 31.2783 292.049 35.652 295.96L39.2128 299.144C40.2043 300.031 41.0723 301.046 41.7937 302.164L42.0165 302.509C43.4232 304.688 44.1714 307.226 44.1714 309.819C44.1714 313.69 42.507 317.374 39.6023 319.933L32.8146 325.912C31.2274 327.31 30.318 329.323 30.318 331.438C30.318 333.838 31.4873 336.087 33.4514 337.466L50.1279 349.171C55.2702 352.78 57.937 358.981 57.0198 365.197C56.7865 366.777 56.3171 368.336 55.6446 369.785C52.1754 377.261 54.277 386.262 60.7886 391.313L64.5675 394.245C74.482 401.937 76.6754 416.027 69.5678 426.368L55.3357 447.076L53.228 449.468C50.1718 452.937 46.8615 456.173 43.3248 459.15L35.9334 466.082L28.1757 472.825C25.8187 474.874 23.8198 477.302 22.2615 480.008L21.4326 481.402C18.9466 485.581 19.0233 490.835 21.5941 494.962C22.8471 496.974 24.6456 498.614 26.7683 499.668C28.5333 500.544 30.4772 501 32.4477 501H33.7929C40.5421 501 46.7564 497.327 50.0101 491.413L58.7751 475.485C61.3058 470.885 64.5553 466.72 68.4006 463.147L78.6384 453.633C83.1731 449.418 89.1343 447.076 95.3248 447.076H96.3359C101.541 447.076 106.574 448.94 110.524 452.331C114.473 455.721 119.507 457.585 124.712 457.585H131.404C135.174 457.585 138.85 458.767 141.914 460.964C142.928 461.691 143.863 462.521 144.706 463.441L149.895 469.109C151.533 470.897 153.797 471.985 156.216 472.144C160.074 472.399 163.695 470.268 165.346 466.773L168.994 459.048C169.663 457.63 170.493 456.294 171.467 455.066L171.673 454.805C175.432 450.064 181.151 447.3 187.202 447.3C194.769 447.3 201.675 442.99 205.001 436.193L214.118 417.561L226.883 392.992L228.339 390.39C232.251 383.403 240.245 379.761 248.084 381.397L276.945 384.022L280.778 384.528C281.607 384.637 282.447 384.647 283.278 384.558L285.297 384.341C287.173 384.139 288.858 383.101 289.882 381.517C290.338 380.812 290.647 380.022 290.791 379.195L290.939 378.345C291.043 377.749 291.096 377.145 291.096 376.541V376.061C291.096 374.858 290.96 373.659 290.692 372.486L289.031 365.215C288.539 363.062 288.912 360.802 290.07 358.921C290.745 357.827 291.16 356.592 291.283 355.312L291.308 355.058C291.308 354.879 291.497 352.495 293.113 350.706L295.037 348.578C296.808 346.618 297.222 343.784 296.085 341.399L295.773 340.743C294.083 337.199 296.22 333.017 300.082 332.309C300.668 332.202 301.236 332.007 301.764 331.732L301.971 331.624C304.933 330.08 306.519 326.763 305.859 323.487L303.824 313.374C303.618 312.35 303.735 311.287 304.158 310.332C304.633 309.257 305.468 308.382 306.52 307.857L310.043 306.097C311.375 305.431 312.588 304.553 313.637 303.496L315.62 301.496C316.887 300.219 317.597 298.493 317.597 296.694C317.597 294.399 316.444 292.258 314.527 290.997L309.271 287.537C307.191 286.168 305.667 284.102 304.972 281.711C304.322 279.474 304.436 277.086 305.296 274.921L306.279 272.447C306.889 271.267 307.244 269.974 307.324 268.648L308.127 255.23C307.522 244.39 304.077 233.899 298.139 224.81L290.111 212.523L274.173 182.561L258.236 147.232L247.379 129.792L221.972 98.2647Z" fill="#0D2054" stroke="#0D2054"/>
</svg>
