<svg width="1000" height="1000" viewBox="0 0 1000 1000" fill="none" xmlns="http://www.w3.org/2000/svg">
<circle cx="500" cy="500" r="485" fill="#F8F9F8" stroke="#0D2054" stroke-width="30"/>
<path d="M605.736 205.555H497.468V211.47H517.998C525.684 211.47 531.915 217.701 531.915 225.387V416.437C531.915 429.374 521.428 439.861 508.491 439.861H493.334V446.667H531.909H552.687H571.284H609.87V439.935H594.713C581.776 439.935 571.289 429.448 571.289 416.511V369.427H585.077C595.859 369.427 606.572 367.71 616.814 364.34C622.563 362.449 628.131 360.047 633.451 357.164L637.87 354.77L647.218 349.253L651.288 346.617C663.264 338.859 672.037 327.039 675.993 313.329C677.84 302.584 678.769 291.702 678.769 280.8V264.219V231.389C678.769 219.809 686.985 209.834 698.342 207.574L706.667 205.555H676.87C656.863 205.555 640.645 221.774 640.645 241.78V261.393V297.183V305.843C640.645 310.814 640.028 315.767 638.809 320.586L638.039 323.627C636.768 328.65 634.598 333.401 631.634 337.651C624.636 347.686 613.688 354.258 601.541 355.715L571.284 359.344L571.289 225.387C571.289 217.701 577.519 211.47 585.205 211.47H605.736V205.555Z" fill="#0D0F10" stroke="#0D0F10"/>
<path d="M446.317 228.825L444.195 226.882C425.907 210.144 406.159 195.074 385.188 181.852L374.044 176.131L363.378 171.614L353.827 168.001L348.892 166.495L344.594 165.592L338.544 164.538L332.973 163.785L324.854 163.333L320.397 163.484L316.576 164.086L309.094 166.344C300.103 169.351 294.779 178.604 296.698 187.887L297.473 191.638L303.095 212.221C306.709 225.451 308.922 239.024 309.7 252.716L311.015 279.773L311.37 287.629C311.709 295.133 314.35 302.35 318.933 308.3C325.422 316.724 335.255 321.908 345.872 322.502L356.897 323.119C358.317 323.273 358.643 325.193 357.354 325.808L345.207 331.599L332.348 338.061L325.079 341.991C323.404 342.897 321.841 343.999 320.425 345.273L317.766 347.665C316.625 348.691 315.75 349.977 315.214 351.414C313.83 355.124 314.888 359.304 317.87 361.909L320.377 364.099C321.049 364.686 321.638 365.36 322.13 366.104L322.298 366.359C323.263 367.819 323.777 369.529 323.777 371.279C323.777 373.877 322.644 376.347 320.675 378.042L315.929 382.125C314.85 383.054 314.229 384.407 314.229 385.831C314.229 387.443 315.024 388.951 316.353 389.862L327.973 397.831C331.453 400.217 333.263 404.382 332.633 408.555C332.472 409.622 332.148 410.673 331.685 411.647C329.305 416.659 330.73 422.734 335.151 426.085L337.826 428.112C344.622 433.263 346.119 442.87 341.212 449.845L331.472 463.691L330.03 465.29C327.916 467.633 325.631 469.817 323.194 471.821L318.099 476.488L312.734 481.045C311.122 482.414 309.751 484.043 308.677 485.866L308.129 486.764C306.407 489.593 306.444 493.154 308.224 495.946C309.088 497.301 310.31 498.389 311.756 499.09L311.801 499.112C313.006 499.696 314.328 500 315.667 500H316.604C321.275 500 325.584 497.482 327.876 493.411L333.807 482.881C335.574 479.744 337.834 476.911 340.5 474.49L347.478 468.155C350.642 465.282 354.761 463.691 359.034 463.691H359.783C363.339 463.691 366.782 464.944 369.507 467.229C372.232 469.515 375.675 470.767 379.232 470.767H383.945C386.515 470.767 389.023 471.559 391.129 473.033C391.836 473.529 392.49 474.096 393.08 474.726L396.624 478.507C397.765 479.725 399.328 480.463 400.993 480.57C403.661 480.742 406.166 479.281 407.329 476.874L409.788 471.788C410.26 470.81 410.845 469.89 411.53 469.046L411.603 468.956C414.228 465.721 418.172 463.842 422.338 463.842C427.571 463.842 432.356 460.887 434.699 456.208L440.905 443.818L449.702 427.275L450.63 425.656C453.379 420.857 458.895 418.363 464.314 419.467L484.205 421.235L486.856 421.576C487.421 421.649 487.994 421.656 488.561 421.597L490.011 421.444C491.274 421.312 492.411 420.621 493.112 419.562C493.432 419.078 493.65 418.534 493.752 417.963L493.85 417.415C493.922 417.012 493.958 416.604 493.958 416.194V415.874C493.958 415.064 493.865 414.257 493.68 413.469L492.538 408.587C492.197 407.13 492.455 405.597 493.253 404.331C493.716 403.596 494.002 402.763 494.088 401.898L494.104 401.733C494.104 401.612 494.234 400.006 495.349 398.802L496.675 397.368C497.891 396.054 498.174 394.129 497.389 392.52L497.231 392.196C496.048 389.771 497.512 386.887 500.169 386.412C500.561 386.342 500.942 386.214 501.297 386.033L501.434 385.963C503.481 384.921 504.579 382.638 504.115 380.388L502.734 373.681C502.59 372.982 502.671 372.255 502.965 371.605C503.29 370.889 503.854 370.309 504.56 369.964L507.049 368.749C507.945 368.312 508.764 367.732 509.475 367.032L510.873 365.655C511.737 364.804 512.223 363.642 512.223 362.43C512.223 360.89 511.44 359.455 510.145 358.622L506.435 356.236C505.034 355.335 504.002 353.962 503.527 352.365C503.076 350.848 503.155 349.223 503.751 347.758L504.422 346.108C504.842 345.314 505.088 344.439 505.143 343.543L505.696 334.515C505.279 327.221 502.917 320.171 498.856 314.098L493.279 305.759L482.295 285.584L471.311 261.797L463.829 250.053L446.317 228.825Z" fill="#0D0F10" stroke="#0D0F10"/>
<path d="M193.609 716.117V725.375C193.609 727.375 193.828 728.617 194.266 729.102C194.859 729.789 195.758 730.133 196.961 730.133H198.18V731H184.562V730.133H185.758C187.102 730.133 188.062 729.695 188.641 728.82C188.953 728.336 189.109 727.188 189.109 725.375V704.844C189.109 702.844 188.898 701.602 188.477 701.117C187.867 700.43 186.961 700.086 185.758 700.086H184.562V699.219H196.211C199.055 699.219 201.297 699.516 202.938 700.109C204.578 700.688 205.961 701.672 207.086 703.062C208.211 704.453 208.773 706.102 208.773 708.008C208.773 710.602 207.914 712.711 206.195 714.336C204.492 715.961 202.078 716.773 198.953 716.773C198.188 716.773 197.359 716.719 196.469 716.609C195.578 716.5 194.625 716.336 193.609 716.117ZM193.609 714.781C194.438 714.938 195.172 715.055 195.812 715.133C196.453 715.211 197 715.25 197.453 715.25C199.078 715.25 200.477 714.625 201.648 713.375C202.836 712.109 203.43 710.477 203.43 708.477C203.43 707.102 203.148 705.828 202.586 704.656C202.023 703.469 201.227 702.586 200.195 702.008C199.164 701.414 197.992 701.117 196.68 701.117C195.883 701.117 194.859 701.266 193.609 701.562V714.781ZM232.492 698.492V709.484H231.625C231.344 707.375 230.836 705.695 230.102 704.445C229.383 703.195 228.352 702.203 227.008 701.469C225.664 700.734 224.273 700.367 222.836 700.367C221.211 700.367 219.867 700.867 218.805 701.867C217.742 702.852 217.211 703.977 217.211 705.242C217.211 706.211 217.547 707.094 218.219 707.891C219.188 709.062 221.492 710.625 225.133 712.578C228.102 714.172 230.125 715.398 231.203 716.258C232.297 717.102 233.133 718.102 233.711 719.258C234.305 720.414 234.602 721.625 234.602 722.891C234.602 725.297 233.664 727.375 231.789 729.125C229.93 730.859 227.531 731.727 224.594 731.727C223.672 731.727 222.805 731.656 221.992 731.516C221.508 731.438 220.5 731.156 218.969 730.672C217.453 730.172 216.492 729.922 216.086 729.922C215.695 729.922 215.383 730.039 215.148 730.273C214.93 730.508 214.766 730.992 214.656 731.727H213.789V720.828H214.656C215.062 723.109 215.609 724.82 216.297 725.961C216.984 727.086 218.031 728.023 219.438 728.773C220.859 729.523 222.414 729.898 224.102 729.898C226.055 729.898 227.594 729.383 228.719 728.352C229.859 727.32 230.43 726.102 230.43 724.695C230.43 723.914 230.211 723.125 229.773 722.328C229.352 721.531 228.688 720.789 227.781 720.102C227.172 719.633 225.508 718.641 222.789 717.125C220.07 715.594 218.133 714.375 216.977 713.469C215.836 712.562 214.969 711.562 214.375 710.469C213.781 709.375 213.484 708.172 213.484 706.859C213.484 704.578 214.359 702.617 216.109 700.977C217.859 699.32 220.086 698.492 222.789 698.492C224.477 698.492 226.266 698.906 228.156 699.734C229.031 700.125 229.648 700.32 230.008 700.32C230.414 700.32 230.742 700.203 230.992 699.969C231.258 699.719 231.469 699.227 231.625 698.492H232.492ZM260.078 699.219H271.164V700.086H270.555C270.148 700.086 269.555 700.266 268.773 700.625C267.992 700.984 267.281 701.5 266.641 702.172C266 702.844 265.211 703.938 264.273 705.453L256.609 717.523V725.492C256.609 727.445 256.828 728.664 257.266 729.148C257.859 729.805 258.797 730.133 260.078 730.133H261.109V731H247.609V730.133H248.734C250.078 730.133 251.031 729.727 251.594 728.914C251.938 728.414 252.109 727.273 252.109 725.492V717.969L243.391 704.656C242.359 703.094 241.656 702.117 241.281 701.727C240.922 701.336 240.164 700.867 239.008 700.32C238.695 700.164 238.242 700.086 237.648 700.086V699.219H251.242V700.086H250.539C249.805 700.086 249.125 700.258 248.5 700.602C247.891 700.945 247.586 701.461 247.586 702.148C247.586 702.711 248.062 703.727 249.016 705.195L255.648 715.438L261.883 705.641C262.82 704.172 263.289 703.078 263.289 702.359C263.289 701.922 263.172 701.531 262.938 701.188C262.719 700.844 262.398 700.578 261.977 700.391C261.555 700.188 260.922 700.086 260.078 700.086V699.219ZM300.789 698.492L301.516 709.297H300.789C299.82 706.062 298.438 703.734 296.641 702.312C294.844 700.891 292.688 700.18 290.172 700.18C288.062 700.18 286.156 700.719 284.453 701.797C282.75 702.859 281.406 704.562 280.422 706.906C279.453 709.25 278.969 712.164 278.969 715.648C278.969 718.523 279.43 721.016 280.352 723.125C281.273 725.234 282.656 726.852 284.5 727.977C286.359 729.102 288.477 729.664 290.852 729.664C292.914 729.664 294.734 729.227 296.312 728.352C297.891 727.461 299.625 725.703 301.516 723.078L302.242 723.547C300.648 726.375 298.789 728.445 296.664 729.758C294.539 731.07 292.016 731.727 289.094 731.727C283.828 731.727 279.75 729.773 276.859 725.867C274.703 722.961 273.625 719.539 273.625 715.602C273.625 712.43 274.336 709.516 275.758 706.859C277.18 704.203 279.133 702.148 281.617 700.695C284.117 699.227 286.844 698.492 289.797 698.492C292.094 698.492 294.359 699.055 296.594 700.18C297.25 700.523 297.719 700.695 298 700.695C298.422 700.695 298.789 700.547 299.102 700.25C299.508 699.828 299.797 699.242 299.969 698.492H300.789ZM313.773 713.961H328.539V704.867C328.539 703.242 328.438 702.172 328.234 701.656C328.078 701.266 327.75 700.93 327.25 700.648C326.578 700.273 325.867 700.086 325.117 700.086H323.992V699.219H337.586V700.086H336.461C335.711 700.086 335 700.266 334.328 700.625C333.828 700.875 333.484 701.258 333.297 701.773C333.125 702.273 333.039 703.305 333.039 704.867V725.375C333.039 726.984 333.141 728.047 333.344 728.562C333.5 728.953 333.82 729.289 334.305 729.57C334.992 729.945 335.711 730.133 336.461 730.133H337.586V731H323.992V730.133H325.117C326.414 730.133 327.359 729.75 327.953 728.984C328.344 728.484 328.539 727.281 328.539 725.375V715.695H313.773V725.375C313.773 726.984 313.875 728.047 314.078 728.562C314.234 728.953 314.562 729.289 315.062 729.57C315.734 729.945 316.445 730.133 317.195 730.133H318.344V731H304.727V730.133H305.852C307.164 730.133 308.117 729.75 308.711 728.984C309.086 728.484 309.273 727.281 309.273 725.375V704.867C309.273 703.242 309.172 702.172 308.969 701.656C308.812 701.266 308.492 700.93 308.008 700.648C307.32 700.273 306.602 700.086 305.852 700.086H304.727V699.219H318.344V700.086H317.195C316.445 700.086 315.734 700.266 315.062 700.625C314.578 700.875 314.242 701.258 314.055 701.773C313.867 702.273 313.773 703.305 313.773 704.867V713.961ZM356.148 698.492C360.273 698.492 363.844 700.062 366.859 703.203C369.891 706.328 371.406 710.234 371.406 714.922C371.406 719.75 369.883 723.758 366.836 726.945C363.789 730.133 360.102 731.727 355.773 731.727C351.398 731.727 347.719 730.172 344.734 727.062C341.766 723.953 340.281 719.93 340.281 714.992C340.281 709.945 342 705.828 345.438 702.641C348.422 699.875 351.992 698.492 356.148 698.492ZM355.703 700.203C352.859 700.203 350.578 701.258 348.859 703.367C346.719 705.992 345.648 709.836 345.648 714.898C345.648 720.086 346.758 724.078 348.977 726.875C350.68 729 352.93 730.062 355.727 730.062C358.711 730.062 361.172 728.898 363.109 726.57C365.062 724.242 366.039 720.57 366.039 715.555C366.039 710.117 364.969 706.062 362.828 703.391C361.109 701.266 358.734 700.203 355.703 700.203ZM400.797 722.211L401.57 722.375L398.852 731H374.242V730.133H375.438C376.781 730.133 377.742 729.695 378.32 728.82C378.648 728.32 378.812 727.164 378.812 725.352V704.844C378.812 702.859 378.594 701.617 378.156 701.117C377.547 700.43 376.641 700.086 375.438 700.086H374.242V699.219H388.633V700.086C386.945 700.07 385.758 700.227 385.07 700.555C384.398 700.883 383.938 701.297 383.688 701.797C383.438 702.297 383.312 703.492 383.312 705.383V725.352C383.312 726.648 383.438 727.539 383.688 728.023C383.875 728.352 384.164 728.594 384.555 728.75C384.945 728.906 386.164 728.984 388.211 728.984H390.531C392.969 728.984 394.68 728.805 395.664 728.445C396.648 728.086 397.547 727.453 398.359 726.547C399.172 725.625 399.984 724.18 400.797 722.211ZM420.18 698.492C424.305 698.492 427.875 700.062 430.891 703.203C433.922 706.328 435.438 710.234 435.438 714.922C435.438 719.75 433.914 723.758 430.867 726.945C427.82 730.133 424.133 731.727 419.805 731.727C415.43 731.727 411.75 730.172 408.766 727.062C405.797 723.953 404.312 719.93 404.312 714.992C404.312 709.945 406.031 705.828 409.469 702.641C412.453 699.875 416.023 698.492 420.18 698.492ZM419.734 700.203C416.891 700.203 414.609 701.258 412.891 703.367C410.75 705.992 409.68 709.836 409.68 714.898C409.68 720.086 410.789 724.078 413.008 726.875C414.711 729 416.961 730.062 419.758 730.062C422.742 730.062 425.203 728.898 427.141 726.57C429.094 724.242 430.07 720.57 430.07 715.555C430.07 710.117 429 706.062 426.859 703.391C425.141 701.266 422.766 700.203 419.734 700.203ZM466.773 698.492L467.594 708.523H466.773C465.945 706.023 464.875 704.141 463.562 702.875C461.672 701.047 459.242 700.133 456.273 700.133C452.227 700.133 449.148 701.734 447.039 704.938C445.273 707.641 444.391 710.859 444.391 714.594C444.391 717.625 444.977 720.391 446.148 722.891C447.32 725.391 448.852 727.227 450.742 728.398C452.648 729.555 454.602 730.133 456.602 730.133C457.773 730.133 458.906 729.984 460 729.688C461.094 729.391 462.148 728.953 463.164 728.375V719.188C463.164 717.594 463.039 716.555 462.789 716.07C462.555 715.57 462.18 715.195 461.664 714.945C461.164 714.68 460.273 714.547 458.992 714.547V713.656H471.297V714.547H470.711C469.492 714.547 468.656 714.953 468.203 715.766C467.891 716.344 467.734 717.484 467.734 719.188V728.914C465.938 729.883 464.164 730.594 462.414 731.047C460.664 731.5 458.719 731.727 456.578 731.727C450.438 731.727 445.773 729.758 442.586 725.82C440.195 722.867 439 719.461 439 715.602C439 712.805 439.672 710.125 441.016 707.562C442.609 704.516 444.797 702.172 447.578 700.531C449.906 699.172 452.656 698.492 455.828 698.492C456.984 698.492 458.031 698.586 458.969 698.773C459.922 698.961 461.266 699.375 463 700.016C463.875 700.344 464.461 700.508 464.758 700.508C465.055 700.508 465.305 700.375 465.508 700.109C465.727 699.828 465.859 699.289 465.906 698.492H466.773ZM486.812 730.133V731H473.195V730.133H474.32C475.633 730.133 476.586 729.75 477.18 728.984C477.555 728.484 477.742 727.281 477.742 725.375V704.844C477.742 703.234 477.641 702.172 477.438 701.656C477.281 701.266 476.961 700.93 476.477 700.648C475.789 700.273 475.07 700.086 474.32 700.086H473.195V699.219H486.812V700.086H485.664C484.367 700.086 483.422 700.469 482.828 701.234C482.438 701.734 482.242 702.938 482.242 704.844V725.375C482.242 726.984 482.344 728.047 482.547 728.562C482.703 728.953 483.031 729.289 483.531 729.57C484.203 729.945 484.914 730.133 485.664 730.133H486.812ZM516.883 698.492L517.609 709.297H516.883C515.914 706.062 514.531 703.734 512.734 702.312C510.938 700.891 508.781 700.18 506.266 700.18C504.156 700.18 502.25 700.719 500.547 701.797C498.844 702.859 497.5 704.562 496.516 706.906C495.547 709.25 495.062 712.164 495.062 715.648C495.062 718.523 495.523 721.016 496.445 723.125C497.367 725.234 498.75 726.852 500.594 727.977C502.453 729.102 504.57 729.664 506.945 729.664C509.008 729.664 510.828 729.227 512.406 728.352C513.984 727.461 515.719 725.703 517.609 723.078L518.336 723.547C516.742 726.375 514.883 728.445 512.758 729.758C510.633 731.07 508.109 731.727 505.188 731.727C499.922 731.727 495.844 729.773 492.953 725.867C490.797 722.961 489.719 719.539 489.719 715.602C489.719 712.43 490.43 709.516 491.852 706.859C493.273 704.203 495.227 702.148 497.711 700.695C500.211 699.227 502.938 698.492 505.891 698.492C508.188 698.492 510.453 699.055 512.688 700.18C513.344 700.523 513.812 700.695 514.094 700.695C514.516 700.695 514.883 700.547 515.195 700.25C515.602 699.828 515.891 699.242 516.062 698.492H516.883ZM541.961 720.359H529.656L527.5 725.375C526.969 726.609 526.703 727.531 526.703 728.141C526.703 728.625 526.93 729.055 527.383 729.43C527.852 729.789 528.852 730.023 530.383 730.133V731H520.375V730.133C521.703 729.898 522.562 729.594 522.953 729.219C523.75 728.469 524.633 726.945 525.602 724.648L536.781 698.492H537.602L548.664 724.93C549.555 727.055 550.359 728.438 551.078 729.078C551.812 729.703 552.828 730.055 554.125 730.133V731H541.586V730.133C542.852 730.07 543.703 729.859 544.141 729.5C544.594 729.141 544.82 728.703 544.82 728.188C544.82 727.5 544.508 726.414 543.883 724.93L541.961 720.359ZM541.305 718.625L535.914 705.781L530.383 718.625H541.305ZM582.203 722.211L582.977 722.375L580.258 731H555.648V730.133H556.844C558.188 730.133 559.148 729.695 559.727 728.82C560.055 728.32 560.219 727.164 560.219 725.352V704.844C560.219 702.859 560 701.617 559.562 701.117C558.953 700.43 558.047 700.086 556.844 700.086H555.648V699.219H570.039V700.086C568.352 700.07 567.164 700.227 566.477 700.555C565.805 700.883 565.344 701.297 565.094 701.797C564.844 702.297 564.719 703.492 564.719 705.383V725.352C564.719 726.648 564.844 727.539 565.094 728.023C565.281 728.352 565.57 728.594 565.961 728.75C566.352 728.906 567.57 728.984 569.617 728.984H571.938C574.375 728.984 576.086 728.805 577.07 728.445C578.055 728.086 578.953 727.453 579.766 726.547C580.578 725.625 581.391 724.18 582.203 722.211ZM616.258 698.492V709.484H615.391C615.109 707.375 614.602 705.695 613.867 704.445C613.148 703.195 612.117 702.203 610.773 701.469C609.43 700.734 608.039 700.367 606.602 700.367C604.977 700.367 603.633 700.867 602.57 701.867C601.508 702.852 600.977 703.977 600.977 705.242C600.977 706.211 601.312 707.094 601.984 707.891C602.953 709.062 605.258 710.625 608.898 712.578C611.867 714.172 613.891 715.398 614.969 716.258C616.062 717.102 616.898 718.102 617.477 719.258C618.07 720.414 618.367 721.625 618.367 722.891C618.367 725.297 617.43 727.375 615.555 729.125C613.695 730.859 611.297 731.727 608.359 731.727C607.438 731.727 606.57 731.656 605.758 731.516C605.273 731.438 604.266 731.156 602.734 730.672C601.219 730.172 600.258 729.922 599.852 729.922C599.461 729.922 599.148 730.039 598.914 730.273C598.695 730.508 598.531 730.992 598.422 731.727H597.555V720.828H598.422C598.828 723.109 599.375 724.82 600.062 725.961C600.75 727.086 601.797 728.023 603.203 728.773C604.625 729.523 606.18 729.898 607.867 729.898C609.82 729.898 611.359 729.383 612.484 728.352C613.625 727.32 614.195 726.102 614.195 724.695C614.195 723.914 613.977 723.125 613.539 722.328C613.117 721.531 612.453 720.789 611.547 720.102C610.938 719.633 609.273 718.641 606.555 717.125C603.836 715.594 601.898 714.375 600.742 713.469C599.602 712.562 598.734 711.562 598.141 710.469C597.547 709.375 597.25 708.172 597.25 706.859C597.25 704.578 598.125 702.617 599.875 700.977C601.625 699.32 603.852 698.492 606.555 698.492C608.242 698.492 610.031 698.906 611.922 699.734C612.797 700.125 613.414 700.32 613.773 700.32C614.18 700.32 614.508 700.203 614.758 699.969C615.023 699.719 615.234 699.227 615.391 698.492H616.258ZM631 700.953V713.516H637.984C639.797 713.516 641.008 713.242 641.617 712.695C642.43 711.977 642.883 710.711 642.977 708.898H643.844V719.961H642.977C642.758 718.414 642.539 717.422 642.32 716.984C642.039 716.438 641.578 716.008 640.938 715.695C640.297 715.383 639.312 715.227 637.984 715.227H631V725.703C631 727.109 631.062 727.969 631.188 728.281C631.312 728.578 631.531 728.82 631.844 729.008C632.156 729.18 632.75 729.266 633.625 729.266H639.016C640.812 729.266 642.117 729.141 642.93 728.891C643.742 728.641 644.523 728.148 645.273 727.414C646.242 726.445 647.234 724.984 648.25 723.031H649.188L646.445 731H621.953V730.133H623.078C623.828 730.133 624.539 729.953 625.211 729.594C625.711 729.344 626.047 728.969 626.219 728.469C626.406 727.969 626.5 726.945 626.5 725.398V704.75C626.5 702.734 626.297 701.492 625.891 701.023C625.328 700.398 624.391 700.086 623.078 700.086H621.953V699.219H646.445L646.797 706.18H645.883C645.555 704.508 645.188 703.359 644.781 702.734C644.391 702.109 643.805 701.633 643.023 701.305C642.398 701.07 641.297 700.953 639.719 700.953H631ZM682.75 731H674.266L663.508 716.141C662.711 716.172 662.062 716.188 661.562 716.188C661.359 716.188 661.141 716.188 660.906 716.188C660.672 716.172 660.43 716.156 660.18 716.141V725.375C660.18 727.375 660.398 728.617 660.836 729.102C661.43 729.789 662.32 730.133 663.508 730.133H664.75V731H651.133V730.133H652.328C653.672 730.133 654.633 729.695 655.211 728.82C655.539 728.336 655.703 727.188 655.703 725.375V704.844C655.703 702.844 655.484 701.602 655.047 701.117C654.438 700.43 653.531 700.086 652.328 700.086H651.133V699.219H662.711C666.086 699.219 668.57 699.469 670.164 699.969C671.773 700.453 673.133 701.359 674.242 702.688C675.367 704 675.93 705.57 675.93 707.398C675.93 709.352 675.289 711.047 674.008 712.484C672.742 713.922 670.773 714.938 668.102 715.531L674.664 724.648C676.164 726.742 677.453 728.133 678.531 728.82C679.609 729.508 681.016 729.945 682.75 730.133V731ZM660.18 714.664C660.477 714.664 660.734 714.672 660.953 714.688C661.172 714.688 661.352 714.688 661.492 714.688C664.523 714.688 666.805 714.031 668.336 712.719C669.883 711.406 670.656 709.734 670.656 707.703C670.656 705.719 670.031 704.109 668.781 702.875C667.547 701.625 665.906 701 663.859 701C662.953 701 661.727 701.148 660.18 701.445V714.664ZM712.562 699.219V700.086C711.438 700.289 710.586 700.648 710.008 701.164C709.18 701.93 708.445 703.102 707.805 704.68L696.719 731.727H695.852L683.945 704.328C683.336 702.922 682.906 702.062 682.656 701.75C682.266 701.266 681.781 700.891 681.203 700.625C680.641 700.344 679.875 700.164 678.906 700.086V699.219H691.891V700.086C690.422 700.227 689.469 700.477 689.031 700.836C688.594 701.195 688.375 701.656 688.375 702.219C688.375 703 688.734 704.219 689.453 705.875L697.539 724.508L705.039 706.109C705.773 704.297 706.141 703.039 706.141 702.336C706.141 701.883 705.914 701.453 705.461 701.047C705.008 700.625 704.242 700.328 703.164 700.156C703.086 700.141 702.953 700.117 702.766 700.086V699.219H712.562ZM727.984 730.133V731H714.367V730.133H715.492C716.805 730.133 717.758 729.75 718.352 728.984C718.727 728.484 718.914 727.281 718.914 725.375V704.844C718.914 703.234 718.812 702.172 718.609 701.656C718.453 701.266 718.133 700.93 717.648 700.648C716.961 700.273 716.242 700.086 715.492 700.086H714.367V699.219H727.984V700.086H726.836C725.539 700.086 724.594 700.469 724 701.234C723.609 701.734 723.414 702.938 723.414 704.844V725.375C723.414 726.984 723.516 728.047 723.719 728.562C723.875 728.953 724.203 729.289 724.703 729.57C725.375 729.945 726.086 730.133 726.836 730.133H727.984ZM758.055 698.492L758.781 709.297H758.055C757.086 706.062 755.703 703.734 753.906 702.312C752.109 700.891 749.953 700.18 747.438 700.18C745.328 700.18 743.422 700.719 741.719 701.797C740.016 702.859 738.672 704.562 737.688 706.906C736.719 709.25 736.234 712.164 736.234 715.648C736.234 718.523 736.695 721.016 737.617 723.125C738.539 725.234 739.922 726.852 741.766 727.977C743.625 729.102 745.742 729.664 748.117 729.664C750.18 729.664 752 729.227 753.578 728.352C755.156 727.461 756.891 725.703 758.781 723.078L759.508 723.547C757.914 726.375 756.055 728.445 753.93 729.758C751.805 731.07 749.281 731.727 746.359 731.727C741.094 731.727 737.016 729.773 734.125 725.867C731.969 722.961 730.891 719.539 730.891 715.602C730.891 712.43 731.602 709.516 733.023 706.859C734.445 704.203 736.398 702.148 738.883 700.695C741.383 699.227 744.109 698.492 747.062 698.492C749.359 698.492 751.625 699.055 753.859 700.18C754.516 700.523 754.984 700.695 755.266 700.695C755.688 700.695 756.055 700.547 756.367 700.25C756.773 699.828 757.062 699.242 757.234 698.492H758.055ZM771.203 700.953V713.516H778.188C780 713.516 781.211 713.242 781.82 712.695C782.633 711.977 783.086 710.711 783.18 708.898H784.047V719.961H783.18C782.961 718.414 782.742 717.422 782.523 716.984C782.242 716.438 781.781 716.008 781.141 715.695C780.5 715.383 779.516 715.227 778.188 715.227H771.203V725.703C771.203 727.109 771.266 727.969 771.391 728.281C771.516 728.578 771.734 728.82 772.047 729.008C772.359 729.18 772.953 729.266 773.828 729.266H779.219C781.016 729.266 782.32 729.141 783.133 728.891C783.945 728.641 784.727 728.148 785.477 727.414C786.445 726.445 787.438 724.984 788.453 723.031H789.391L786.648 731H762.156V730.133H763.281C764.031 730.133 764.742 729.953 765.414 729.594C765.914 729.344 766.25 728.969 766.422 728.469C766.609 727.969 766.703 726.945 766.703 725.398V704.75C766.703 702.734 766.5 701.492 766.094 701.023C765.531 700.398 764.594 700.086 763.281 700.086H762.156V699.219H786.648L787 706.18H786.086C785.758 704.508 785.391 703.359 784.984 702.734C784.594 702.109 784.008 701.633 783.227 701.305C782.602 701.07 781.5 700.953 779.922 700.953H771.203ZM812.523 698.492V709.484H811.656C811.375 707.375 810.867 705.695 810.133 704.445C809.414 703.195 808.383 702.203 807.039 701.469C805.695 700.734 804.305 700.367 802.867 700.367C801.242 700.367 799.898 700.867 798.836 701.867C797.773 702.852 797.242 703.977 797.242 705.242C797.242 706.211 797.578 707.094 798.25 707.891C799.219 709.062 801.523 710.625 805.164 712.578C808.133 714.172 810.156 715.398 811.234 716.258C812.328 717.102 813.164 718.102 813.742 719.258C814.336 720.414 814.633 721.625 814.633 722.891C814.633 725.297 813.695 727.375 811.82 729.125C809.961 730.859 807.562 731.727 804.625 731.727C803.703 731.727 802.836 731.656 802.023 731.516C801.539 731.438 800.531 731.156 799 730.672C797.484 730.172 796.523 729.922 796.117 729.922C795.727 729.922 795.414 730.039 795.18 730.273C794.961 730.508 794.797 730.992 794.688 731.727H793.82V720.828H794.688C795.094 723.109 795.641 724.82 796.328 725.961C797.016 727.086 798.062 728.023 799.469 728.773C800.891 729.523 802.445 729.898 804.133 729.898C806.086 729.898 807.625 729.383 808.75 728.352C809.891 727.32 810.461 726.102 810.461 724.695C810.461 723.914 810.242 723.125 809.805 722.328C809.383 721.531 808.719 720.789 807.812 720.102C807.203 719.633 805.539 718.641 802.82 717.125C800.102 715.594 798.164 714.375 797.008 713.469C795.867 712.562 795 711.562 794.406 710.469C793.812 709.375 793.516 708.172 793.516 706.859C793.516 704.578 794.391 702.617 796.141 700.977C797.891 699.32 800.117 698.492 802.82 698.492C804.508 698.492 806.297 698.906 808.188 699.734C809.062 700.125 809.68 700.32 810.039 700.32C810.445 700.32 810.773 700.203 811.023 699.969C811.289 699.719 811.5 699.227 811.656 698.492H812.523Z" fill="#0D0F10"/>
<path d="M211.084 616.61H185.449L180.957 627.059C179.85 629.631 179.297 631.551 179.297 632.821C179.297 633.83 179.769 634.725 180.713 635.506C181.689 636.255 183.773 636.743 186.963 636.971V638.778H166.113V636.971C168.88 636.483 170.67 635.848 171.484 635.067C173.144 633.504 174.984 630.331 177.002 625.545L200.293 571.053H202.002L225.049 626.131C226.904 630.558 228.581 633.439 230.078 634.774C231.608 636.076 233.724 636.808 236.426 636.971V638.778H210.303V636.971C212.939 636.841 214.713 636.402 215.625 635.653C216.569 634.904 217.041 633.993 217.041 632.918C217.041 631.486 216.39 629.224 215.088 626.131L211.084 616.61ZM209.717 612.997L198.486 586.239L186.963 612.997H209.717ZM250.098 629.305C251.627 629.305 252.913 629.842 253.955 630.917C254.997 631.958 255.517 633.228 255.517 634.725C255.517 636.222 254.98 637.508 253.906 638.583C252.864 639.624 251.595 640.145 250.098 640.145C248.6 640.145 247.314 639.624 246.24 638.583C245.198 637.508 244.678 636.222 244.678 634.725C244.678 633.195 245.198 631.909 246.24 630.868C247.314 629.826 248.6 629.305 250.098 629.305ZM303.516 638.778L277.93 583.065V627.303C277.93 631.372 278.369 633.911 279.248 634.92C280.452 636.288 282.357 636.971 284.961 636.971H287.305V638.778H264.258V636.971H266.601C269.401 636.971 271.387 636.125 272.558 634.432C273.275 633.39 273.633 631.014 273.633 627.303V584.042C273.633 581.112 273.307 578.996 272.656 577.694C272.2 576.75 271.354 575.969 270.117 575.35C268.913 574.699 266.96 574.374 264.258 574.374V572.567H283.008L307.031 624.374L330.664 572.567H349.414V574.374H347.119C344.287 574.374 342.285 575.22 341.113 576.913C340.397 577.954 340.039 580.331 340.039 584.042V627.303C340.039 631.372 340.495 633.911 341.406 634.92C342.611 636.288 344.515 636.971 347.119 636.971H349.414V638.778H321.289V636.971H323.633C326.465 636.971 328.45 636.125 329.59 634.432C330.306 633.39 330.664 631.014 330.664 627.303V583.065L305.127 638.778H303.516ZM364.062 629.305C365.592 629.305 366.878 629.842 367.92 630.917C368.961 631.958 369.482 633.228 369.482 634.725C369.482 636.222 368.945 637.508 367.871 638.583C366.829 639.624 365.56 640.145 364.062 640.145C362.565 640.145 361.279 639.624 360.205 638.583C359.163 637.508 358.642 636.222 358.642 634.725C358.642 633.195 359.163 631.909 360.205 630.868C361.279 629.826 362.565 629.305 364.062 629.305ZM422.07 607.772V627.059C422.07 631.226 422.526 633.814 423.437 634.823C424.674 636.255 426.546 636.971 429.053 636.971H431.592V638.778H403.223V636.971H405.713C408.512 636.971 410.514 636.06 411.719 634.237C412.37 633.228 412.695 630.835 412.695 627.059V584.286C412.695 580.119 412.256 577.531 411.377 576.522C410.107 575.09 408.219 574.374 405.713 574.374H403.223V572.567H427.49C433.415 572.567 438.086 573.185 441.504 574.422C444.922 575.627 447.803 577.678 450.146 580.575C452.49 583.472 453.662 586.906 453.662 590.877C453.662 596.281 451.872 600.676 448.291 604.061C444.743 607.446 439.713 609.139 433.203 609.139C431.608 609.139 429.883 609.025 428.027 608.797C426.172 608.569 424.186 608.228 422.07 607.772ZM422.07 604.989C423.795 605.314 425.325 605.558 426.66 605.721C427.995 605.884 429.134 605.965 430.078 605.965C433.463 605.965 436.377 604.663 438.818 602.059C441.292 599.422 442.529 596.021 442.529 591.854C442.529 588.989 441.943 586.336 440.771 583.895C439.599 581.421 437.939 579.582 435.791 578.377C433.642 577.14 431.201 576.522 428.467 576.522C426.807 576.522 424.674 576.831 422.07 577.45V604.989ZM478.125 576.18V602.352H492.676C496.452 602.352 498.974 601.782 500.244 600.643C501.937 599.146 502.881 596.509 503.076 592.733H504.883V615.78H503.076C502.62 612.557 502.165 610.49 501.709 609.579C501.123 608.439 500.163 607.544 498.828 606.893C497.493 606.242 495.443 605.917 492.676 605.917H478.125V627.743C478.125 630.672 478.255 632.463 478.516 633.114C478.776 633.732 479.232 634.237 479.883 634.627C480.534 634.986 481.771 635.165 483.594 635.165H494.824C498.568 635.165 501.286 634.904 502.978 634.383C504.671 633.862 506.299 632.837 507.861 631.307C509.879 629.289 511.946 626.245 514.062 622.176H516.016L510.303 638.778H459.277V636.971H461.621C463.183 636.971 464.665 636.597 466.064 635.848C467.106 635.327 467.806 634.546 468.164 633.504C468.555 632.463 468.75 630.331 468.75 627.108V584.09C468.75 579.891 468.327 577.303 467.48 576.327C466.308 575.025 464.355 574.374 461.621 574.374H459.277V572.567H510.303L511.035 587.069H509.131C508.447 583.586 507.682 581.193 506.836 579.891C506.022 578.589 504.801 577.596 503.174 576.913C501.872 576.424 499.577 576.18 496.289 576.18H478.125ZM585.937 638.778H568.262L545.849 607.821C544.189 607.886 542.838 607.918 541.797 607.918C541.374 607.918 540.918 607.918 540.43 607.918C539.941 607.886 539.437 607.853 538.916 607.821V627.059C538.916 631.226 539.372 633.814 540.283 634.823C541.52 636.255 543.376 636.971 545.849 636.971H548.437V638.778H520.068V636.971H522.558C525.358 636.971 527.36 636.06 528.564 634.237C529.248 633.228 529.59 630.835 529.59 627.059V584.286C529.59 580.119 529.134 577.531 528.223 576.522C526.953 575.09 525.065 574.374 522.558 574.374H520.068V572.567H544.189C551.221 572.567 556.396 573.088 559.717 574.129C563.07 575.139 565.902 577.027 568.213 579.793C570.557 582.528 571.728 585.799 571.728 589.608C571.728 593.677 570.394 597.209 567.724 600.204C565.088 603.198 560.986 605.314 555.42 606.551L569.092 625.545C572.217 629.907 574.902 632.805 577.148 634.237C579.394 635.669 582.324 636.581 585.937 636.971V638.778ZM538.916 604.745C539.534 604.745 540.071 604.761 540.527 604.793C540.983 604.793 541.357 604.793 541.65 604.793C547.965 604.793 552.718 603.426 555.908 600.692C559.131 597.958 560.742 594.474 560.742 590.243C560.742 586.109 559.44 582.756 556.836 580.184C554.264 577.58 550.846 576.278 546.582 576.278C544.694 576.278 542.139 576.587 538.916 577.206V604.745ZM630.81 616.61H605.176L600.683 627.059C599.577 629.631 599.023 631.551 599.023 632.821C599.023 633.83 599.495 634.725 600.439 635.506C601.416 636.255 603.499 636.743 606.689 636.971V638.778H585.84V636.971C588.607 636.483 590.397 635.848 591.211 635.067C592.871 633.504 594.71 630.331 596.728 625.545L620.019 571.053H621.728L644.775 626.131C646.631 630.558 648.307 633.439 649.805 634.774C651.335 636.076 653.45 636.808 656.152 636.971V638.778H630.029V636.971C632.666 636.841 634.44 636.402 635.351 635.653C636.295 634.904 636.767 633.993 636.767 632.918C636.767 631.486 636.116 629.224 634.814 626.131L630.81 616.61ZM629.443 612.997L618.213 586.239L606.689 612.997H629.443ZM714.648 620.467L716.26 620.809L710.596 638.778H659.326V636.971H661.816C664.616 636.971 666.618 636.06 667.822 634.237C668.506 633.195 668.848 630.786 668.848 627.01V584.286C668.848 580.152 668.392 577.564 667.48 576.522C666.211 575.09 664.323 574.374 661.816 574.374H659.326V572.567H689.307V574.374C685.791 574.341 683.317 574.667 681.885 575.35C680.485 576.034 679.525 576.896 679.004 577.938C678.483 578.98 678.223 581.47 678.223 585.409V627.01C678.223 629.712 678.483 631.568 679.004 632.577C679.394 633.26 679.997 633.765 680.81 634.09C681.624 634.416 684.163 634.579 688.428 634.579H693.262C698.34 634.579 701.904 634.204 703.955 633.456C706.006 632.707 707.877 631.389 709.57 629.5C711.263 627.58 712.956 624.569 714.648 620.467ZM767.139 572.567L767.871 588.094H766.016C765.657 585.36 765.169 583.407 764.551 582.235C763.542 580.347 762.191 578.963 760.498 578.084C758.838 577.173 756.641 576.717 753.906 576.717H744.58V627.303C744.58 631.372 745.019 633.911 745.898 634.92C747.135 636.288 749.04 636.971 751.611 636.971H753.906V638.778H725.83V636.971H728.174C730.973 636.971 732.959 636.125 734.131 634.432C734.847 633.39 735.205 631.014 735.205 627.303V576.717H727.246C724.154 576.717 721.956 576.945 720.654 577.401C718.961 578.019 717.513 579.208 716.308 580.965C715.104 582.723 714.388 585.099 714.16 588.094H712.305L713.086 572.567H767.139ZM808.154 616.61H782.519L778.027 627.059C776.92 629.631 776.367 631.551 776.367 632.821C776.367 633.83 776.839 634.725 777.783 635.506C778.76 636.255 780.843 636.743 784.033 636.971V638.778H763.183V636.971C765.95 636.483 767.741 635.848 768.555 635.067C770.215 633.504 772.054 630.331 774.072 625.545L797.363 571.053H799.072L822.119 626.131C823.974 630.558 825.651 633.439 827.148 634.774C828.678 636.076 830.794 636.808 833.496 636.971V638.778H807.373V636.971C810.01 636.841 811.784 636.402 812.695 635.653C813.639 634.904 814.111 633.993 814.111 632.918C814.111 631.486 813.46 629.224 812.158 626.131L808.154 616.61ZM806.787 612.997L795.557 586.239L784.033 612.997H806.787Z" fill="#0D0F10"/>
</svg>
