<svg width="900" height="900" viewBox="0 0 900 900" fill="none" xmlns="http://www.w3.org/2000/svg">
<path d="M613.5 248.975H456.35V257.764H485.671C497.091 257.764 506.35 267.022 506.35 278.442V563.12C506.35 581.898 491.127 597.12 472.35 597.12H450.35V607.232H506.34H536.5H563.493H619.5V597.23H597.5C578.722 597.23 563.5 582.008 563.5 563.23V492.466H583.405C599.122 492.466 614.734 489.907 629.63 484.89C637.94 482.091 645.978 478.543 653.646 474.289L660.141 470.687L673.71 462.49L679.221 458.836C696.868 447.134 709.732 429.491 715.477 409.111C718.158 393.145 719.505 376.984 719.505 360.794V336.14V287.36V286.757C719.505 269.885 731.382 255.343 747.915 251.974L760 248.975H716.749C687.71 248.975 664.17 272.516 664.17 301.555V331.942V385.121V398.051C664.17 405.397 663.279 412.717 661.516 419.848L660.319 424.691C658.519 431.972 655.435 438.874 651.212 445.073C640.986 460.082 624.789 469.956 606.763 472.17L563.493 477.484L563.5 278.442C563.5 267.022 572.758 257.764 584.178 257.764H613.5V248.975Z" fill="#0D2054" stroke="#0D2054"/>
<path d="M381.972 284.265L378.732 281.23C352.304 256.472 323.703 234.139 293.275 214.502L277.107 206.006L261.631 199.298L247.772 193.932L240.612 191.696L234.376 190.354L225.598 188.789L217.514 187.671L205.734 187L199.267 187.224L193.723 188.118L182.867 191.472C169.783 195.95 162.047 209.434 164.784 222.989L166.005 229.036L174.151 259.56C179.403 279.241 182.618 299.409 183.746 319.747L185.654 359.931L186.189 372.053C186.669 382.909 190.423 393.366 196.957 402.049C206.479 414.703 221.089 422.523 236.899 423.428L252.226 424.305C254.32 424.537 254.81 427.362 252.917 428.286L235.265 436.9L216.608 446.496L206.121 452.3C203.65 453.668 201.351 455.326 199.273 457.239L195.497 460.716C193.811 462.269 192.521 464.203 191.736 466.357C189.727 471.869 191.278 478.049 195.652 481.96L199.213 485.144C200.204 486.031 201.072 487.046 201.794 488.164L202.017 488.509C203.423 490.688 204.171 493.226 204.171 495.819C204.171 499.69 202.507 503.374 199.602 505.933L192.815 511.912C191.227 513.31 190.318 515.323 190.318 517.438C190.318 519.838 191.487 522.087 193.451 523.466L210.128 535.171C215.27 538.78 217.937 544.981 217.02 551.197C216.787 552.777 216.317 554.336 215.645 555.785C212.175 563.261 214.277 572.262 220.789 577.313L224.567 580.245C234.482 587.937 236.675 602.027 229.568 612.368L215.336 633.076L213.228 635.468C210.172 638.937 206.862 642.173 203.325 645.15L195.933 652.082L188.176 658.825C185.819 660.874 183.82 663.302 182.261 666.008L181.433 667.402C178.947 671.581 179.023 676.835 181.594 680.962C182.847 682.974 184.646 684.614 186.768 685.668C188.533 686.544 190.477 687 192.448 687H193.793C200.542 687 206.756 683.327 210.01 677.413L218.775 661.485C221.306 656.885 224.555 652.72 228.401 649.147L238.638 639.633C243.173 635.418 249.134 633.076 255.325 633.076H256.336C261.541 633.076 266.574 634.94 270.524 638.331C274.473 641.721 279.507 643.585 284.712 643.585H291.404C295.174 643.585 298.85 644.767 301.914 646.964C302.928 647.691 303.863 648.521 304.706 649.441L309.895 655.109C311.533 656.897 313.797 657.985 316.216 658.144C320.074 658.399 323.695 656.268 325.346 652.773L328.994 645.048C329.663 643.63 330.493 642.294 331.467 641.066L331.673 640.805C335.432 636.064 341.151 633.3 347.202 633.3C354.769 633.3 361.675 628.99 365.001 622.193L374.118 603.561L386.883 578.992L388.339 576.39C392.251 569.403 400.245 565.761 408.084 567.397L436.945 570.022L440.778 570.528C441.607 570.637 442.447 570.647 443.278 570.558L445.297 570.341C447.173 570.139 448.858 569.101 449.882 567.517C450.338 566.812 450.647 566.022 450.791 565.195L450.939 564.345C451.043 563.749 451.096 563.145 451.096 562.541V562.061C451.096 560.858 450.96 559.659 450.692 558.486L449.031 551.215C448.539 549.062 448.912 546.802 450.07 544.921C450.745 543.827 451.16 542.592 451.283 541.312L451.308 541.058C451.308 540.879 451.497 538.495 453.113 536.706L455.037 534.578C456.808 532.618 457.222 529.784 456.085 527.399L455.773 526.743C454.083 523.199 456.22 519.017 460.082 518.309C460.668 518.202 461.236 518.007 461.764 517.732L461.971 517.624C464.933 516.08 466.519 512.763 465.859 509.487L463.824 499.374C463.618 498.35 463.735 497.287 464.158 496.332C464.633 495.257 465.468 494.382 466.52 493.857L470.043 492.097C471.375 491.431 472.588 490.553 473.637 489.496L475.62 487.496C476.887 486.219 477.597 484.493 477.597 482.694C477.597 480.399 476.444 478.258 474.527 476.997L469.271 473.537C467.191 472.168 465.667 470.102 464.972 467.711C464.322 465.474 464.436 463.086 465.296 460.921L466.279 458.447C466.889 457.267 467.244 455.974 467.324 454.648L468.127 441.23C467.522 430.39 464.077 419.899 458.139 410.81L450.111 398.523L434.173 368.561L418.236 333.232L407.379 315.792L381.972 284.265Z" fill="#0D2054" stroke="#0D2054"/>
<circle cx="450" cy="450" r="435" stroke="#0D0F10" stroke-width="30"/>
</svg>
