<svg width="30" height="30" viewBox="0 0 30 30" fill="none" xmlns="http://www.w3.org/2000/svg">
<path d="M10.7812 15C10.7812 15.1243 10.7319 15.2435 10.644 15.3315C10.556 15.4194 10.4368 15.4688 10.3125 15.4688C10.1882 15.4688 10.069 15.4194 9.98104 15.3315C9.89314 15.2435 9.84375 15.1243 9.84375 15C9.84375 14.8757 9.89314 14.7565 9.98104 14.6685C10.069 14.5806 10.1882 14.5312 10.3125 14.5312C10.4368 14.5312 10.556 14.5806 10.644 14.6685C10.7319 14.7565 10.7812 14.8757 10.7812 15ZM10.7812 15H10.3125M15.4688 15C15.4688 15.1243 15.4194 15.2435 15.3315 15.3315C15.2435 15.4194 15.1243 15.4688 15 15.4688C14.8757 15.4688 14.7565 15.4194 14.6685 15.3315C14.5806 15.2435 14.5312 15.1243 14.5312 15C14.5312 14.8757 14.5806 14.7565 14.6685 14.6685C14.7565 14.5806 14.8757 14.5312 15 14.5312C15.1243 14.5312 15.2435 14.5806 15.3315 14.6685C15.4194 14.7565 15.4688 14.8757 15.4688 15ZM15.4688 15H15M20.1562 15C20.1562 15.1243 20.1069 15.2435 20.019 15.3315C19.931 15.4194 19.8118 15.4688 19.6875 15.4688C19.5632 15.4688 19.444 15.4194 19.356 15.3315C19.2681 15.2435 19.2188 15.1243 19.2188 15C19.2188 14.8757 19.2681 14.7565 19.356 14.6685C19.444 14.5806 19.5632 14.5312 19.6875 14.5312C19.8118 14.5312 19.931 14.5806 20.019 14.6685C20.1069 14.7565 20.1562 14.8757 20.1562 15ZM20.1562 15H19.6875M26.25 15C26.25 20.695 21.2125 25.3125 15 25.3125C13.9215 25.3138 12.8475 25.1722 11.8062 24.8913C10.3385 25.9236 8.54791 26.3926 6.7625 26.2125C6.56399 26.1933 6.36633 26.1662 6.17 26.1313C6.78608 25.4052 7.20684 24.534 7.3925 23.6C7.505 23.0287 7.22625 22.4737 6.80875 22.0675C4.9125 20.2225 3.75 17.7362 3.75 15C3.75 9.305 8.7875 4.6875 15 4.6875C21.2125 4.6875 26.25 9.305 26.25 15Z" stroke="#38B6FF" stroke-width="1.5" stroke-linecap="round" stroke-linejoin="round"/>
</svg>
