<svg width="30" height="30" viewBox="0 0 30 30" fill="none" xmlns="http://www.w3.org/2000/svg">
<path d="M10.3125 13.5C10.3125 13.6077 10.2664 13.7111 10.1844 13.7873C10.1023 13.8634 9.99103 13.9063 9.875 13.9063C9.75897 13.9063 9.64769 13.8634 9.56564 13.7873C9.48359 13.7111 9.4375 13.6077 9.4375 13.5C9.4375 13.3923 9.48359 13.2889 9.56564 13.2127C9.64769 13.1366 9.75897 13.0938 9.875 13.0938C9.99103 13.0938 10.1023 13.1366 10.1844 13.2127C10.2664 13.2889 10.3125 13.3923 10.3125 13.5ZM10.3125 13.5H9.875M14.6875 13.5C14.6875 13.6077 14.6414 13.7111 14.5594 13.7873C14.4773 13.8634 14.366 13.9063 14.25 13.9063C14.134 13.9063 14.0227 13.8634 13.9406 13.7873C13.8586 13.7111 13.8125 13.6077 13.8125 13.5C13.8125 13.3923 13.8586 13.2889 13.9406 13.2127C14.0227 13.1366 14.134 13.0938 14.25 13.0938C14.366 13.0938 14.4773 13.1366 14.5594 13.2127C14.6414 13.2889 14.6875 13.3923 14.6875 13.5ZM14.6875 13.5H14.25M19.0625 13.5C19.0625 13.6077 19.0164 13.7111 18.9344 13.7873C18.8523 13.8634 18.741 13.9063 18.625 13.9063C18.509 13.9063 18.3977 13.8634 18.3156 13.7873C18.2336 13.7111 18.1875 13.6077 18.1875 13.5C18.1875 13.3923 18.2336 13.2889 18.3156 13.2127C18.3977 13.1366 18.509 13.0938 18.625 13.0938C18.741 13.0938 18.8523 13.1366 18.9344 13.2127C19.0164 13.2889 19.0625 13.3923 19.0625 13.5ZM19.0625 13.5H18.625M24.75 13.5C24.75 14.7804 24.4784 16.0482 23.9507 17.2312C23.4231 18.4141 22.6496 19.4889 21.6746 20.3943C20.6996 21.2997 19.5421 22.0178 18.2682 22.5078C16.9943 22.9978 15.6289 23.25 14.25 23.25C12.8711 23.25 11.5057 22.9978 10.2318 22.5078C8.95791 22.0178 7.80039 21.2997 6.82538 20.3943C5.85036 19.4889 5.07694 18.4141 4.54926 17.2312C4.02159 16.0482 3.75 14.7804 3.75 13.5C3.75 10.9141 4.85625 8.43419 6.82538 6.60571C8.79451 4.77723 11.4652 3.75 14.25 3.75C17.0348 3.75 19.7055 4.77723 21.6746 6.60571C23.6438 8.43419 24.75 10.9141 24.75 13.5Z" stroke="#38B6FF" stroke-width="1.5" stroke-linecap="round" stroke-linejoin="round"/>
</svg>
