<svg width="40" height="40" viewBox="0 0 40 40" fill="none" xmlns="http://www.w3.org/2000/svg">
<path d="M6.99992 9.66667L16.9999 19.6667M16.9999 19.6667L17.9763 20.643C19.2779 21.9447 21.3886 21.9447 22.6903 20.643L23.6666 19.6667M16.9999 19.6667L6.79772 29.8688M33.6666 9.66667L23.6666 19.6667M23.6666 19.6667L33.8688 29.8688M6.79772 29.8688C5.8929 28.964 5.33325 27.714 5.33325 26.3333V11.3333C5.33325 9.49238 6.82564 8 8.66659 8H31.9999C33.8409 8 35.3333 9.49238 35.3333 11.3333V26.3333C35.3333 27.714 34.7736 28.964 33.8688 29.8688M6.79772 29.8688C7.70254 30.7737 8.95254 31.3333 10.3333 31.3333H30.3333C31.7139 31.3333 32.9639 30.7737 33.8688 29.8688" stroke="#38B6FF" stroke-width="1.5" stroke-linecap="round"/>
</svg>
