<svg width="30" height="30" viewBox="0 0 30 30" fill="none" xmlns="http://www.w3.org/2000/svg">
<path d="M20.625 13.125V8.4375C20.625 6.94566 20.0324 5.51492 18.9775 4.46002C17.9226 3.40513 16.4918 2.8125 15 2.8125C13.5082 2.8125 12.0774 3.40513 11.0225 4.46002C9.96763 5.51492 9.375 6.94566 9.375 8.4375V13.125M8.4375 27.1875H21.5625C22.3084 27.1875 23.0238 26.8912 23.5512 26.3637C24.0787 25.8363 24.375 25.1209 24.375 24.375V15.9375C24.375 15.1916 24.0787 14.4762 23.5512 13.9488C23.0238 13.4213 22.3084 13.125 21.5625 13.125H8.4375C7.69158 13.125 6.97621 13.4213 6.44876 13.9488C5.92132 14.4762 5.625 15.1916 5.625 15.9375V24.375C5.625 25.1209 5.92132 25.8363 6.44876 26.3637C6.97621 26.8912 7.69158 27.1875 8.4375 27.1875Z" stroke="#38B6FF" stroke-width="1.5" stroke-linecap="round" stroke-linejoin="round"/>
</svg>
