<svg width="30" height="30" viewBox="0 0 30 30" fill="none" xmlns="http://www.w3.org/2000/svg">
<path d="M18.5714 21.3525C20.9004 21.0767 23.1887 20.5271 25.3889 19.715C23.5256 17.651 22.496 14.9681 22.5001 12.1875V11.25C22.5001 9.26088 21.7099 7.35322 20.3034 5.9467C18.8969 4.54018 16.9892 3.75 15.0001 3.75C13.011 3.75 11.1033 4.54018 9.69681 5.9467C8.29028 7.35322 7.50011 9.26088 7.50011 11.25V12.1875C7.50388 14.9683 6.47384 17.6512 4.61011 19.715C6.77636 20.515 9.06011 21.0713 11.4289 21.3525M18.5714 21.3525C16.1988 21.6339 13.8014 21.6339 11.4289 21.3525M18.5714 21.3525C18.7515 21.9148 18.7963 22.5117 18.7021 23.0947C18.6079 23.6776 18.3774 24.23 18.0293 24.707C17.6813 25.184 17.2255 25.572 16.6991 25.8395C16.1727 26.107 15.5906 26.2465 15.0001 26.2465C14.4096 26.2465 13.8275 26.107 13.3011 25.8395C12.7747 25.572 12.3189 25.184 11.9709 24.707C11.6228 24.23 11.3923 23.6776 11.2981 23.0947C11.2039 22.5117 11.2487 21.9148 11.4289 21.3525" stroke="#38B6FF" stroke-width="1.5" stroke-linecap="round" stroke-linejoin="round"/>
</svg>
