<svg width="32" height="31" viewBox="0 0 32 31" fill="none" xmlns="http://www.w3.org/2000/svg">
<g filter="url(#filter0_d_53_12)">
<path d="M16.0002 14.9998L10.303 10.2522C9.45651 9.5468 9.03328 9.1941 8.72901 8.76175C8.45942 8.37868 8.25921 7.95122 8.13752 7.49888C8.00016 6.98835 8.00016 6.43743 8.00016 5.33557V1.6665M16.0002 14.9998L21.6973 10.2522C22.5438 9.5468 22.967 9.1941 23.2713 8.76175C23.5409 8.37868 23.7411 7.95122 23.8628 7.49888C24.0002 6.98835 24.0002 6.43743 24.0002 5.33557V1.6665M16.0002 14.9998L10.303 19.7475C9.45651 20.4529 9.03328 20.8056 8.72901 21.2379C8.45942 21.621 8.25921 22.0484 8.13752 22.5008C8.00016 23.0113 8.00016 23.5622 8.00016 24.6641V28.3332M16.0002 14.9998L21.6973 19.7475C22.5438 20.4529 22.967 20.8056 23.2713 21.2379C23.5409 21.621 23.7411 22.0484 23.8628 22.5008C24.0002 23.0113 24.0002 23.5622 24.0002 24.6641V28.3332M5.3335 1.6665H26.6668M5.3335 28.3332H26.6668" stroke="#FFB000" stroke-width="2" stroke-linecap="round" stroke-linejoin="round" shape-rendering="crispEdges"/>
</g>
<defs>
<filter id="filter0_d_53_12" x="0.333496" y="0.666504" width="31.3333" height="36.6667" filterUnits="userSpaceOnUse" color-interpolation-filters="sRGB">
<feFlood flood-opacity="0" result="BackgroundImageFix"/>
<feColorMatrix in="SourceAlpha" type="matrix" values="0 0 0 0 0 0 0 0 0 0 0 0 0 0 0 0 0 0 127 0" result="hardAlpha"/>
<feOffset dy="4"/>
<feGaussianBlur stdDeviation="2"/>
<feComposite in2="hardAlpha" operator="out"/>
<feColorMatrix type="matrix" values="0 0 0 0 0 0 0 0 0 0 0 0 0 0 0 0 0 0 0.25 0"/>
<feBlend mode="normal" in2="BackgroundImageFix" result="effect1_dropShadow_53_12"/>
<feBlend mode="normal" in="SourceGraphic" in2="effect1_dropShadow_53_12" result="shape"/>
</filter>
</defs>
</svg>
