<svg width="30" height="30" viewBox="0 0 30 30" fill="none" xmlns="http://www.w3.org/2000/svg">
<path d="M22.4774 23.4062C21.604 22.2498 20.474 21.312 19.1764 20.6667C17.8788 20.0214 16.4491 19.6862 14.9999 19.6875C13.5507 19.6862 12.121 20.0214 10.8234 20.6667C9.52583 21.312 8.39582 22.2498 7.5224 23.4062M22.4774 23.4062C24.1818 21.8902 25.3838 19.8919 25.9264 17.6764C26.469 15.4608 26.3252 13.1326 25.5142 11.0006C24.7032 8.86858 23.2633 7.03347 21.3854 5.73862C19.5075 4.44377 17.2803 3.75037 14.9993 3.75037C12.7182 3.75037 10.4911 4.44377 8.61315 5.73862C6.73524 7.03347 5.29531 8.86858 4.48431 11.0006C3.67332 13.1326 3.52958 15.4608 4.07217 17.6764C4.61475 19.8919 5.81802 21.8902 7.5224 23.4062M22.4774 23.4062C20.4199 25.2415 17.7569 26.2539 14.9999 26.25C12.2424 26.2542 9.58019 25.2418 7.5224 23.4062M18.7499 12.1875C18.7499 13.1821 18.3548 14.1359 17.6515 14.8391C16.9483 15.5424 15.9945 15.9375 14.9999 15.9375C14.0053 15.9375 13.0515 15.5424 12.3482 14.8391C11.645 14.1359 11.2499 13.1821 11.2499 12.1875C11.2499 11.1929 11.645 10.2391 12.3482 9.53585C13.0515 8.83259 14.0053 8.4375 14.9999 8.4375C15.9945 8.4375 16.9483 8.83259 17.6515 9.53585C18.3548 10.2391 18.7499 11.1929 18.7499 12.1875Z" stroke="#38B6FF" stroke-width="1.5" stroke-linecap="round" stroke-linejoin="round"/>
</svg>
