<svg width="30" height="30" viewBox="0 0 30 30" fill="none" xmlns="http://www.w3.org/2000/svg">
<path d="M11.9924 4.925C12.1049 4.2475 12.6924 3.75 13.3799 3.75H16.6211C17.3086 3.75 17.8961 4.2475 18.0086 4.925L18.2749 6.52625C18.3536 6.99375 18.6661 7.38375 19.0811 7.61375C19.1736 7.66375 19.2649 7.7175 19.3561 7.7725C19.7624 8.0175 20.2561 8.09375 20.6999 7.9275L22.2211 7.3575C22.5329 7.24026 22.8761 7.23747 23.1897 7.34964C23.5033 7.46181 23.767 7.68164 23.9336 7.97L25.5536 10.7788C25.72 11.0671 25.7786 11.4052 25.7191 11.7327C25.6596 12.0602 25.4858 12.3561 25.2286 12.5675L23.9749 13.6012C23.6086 13.9025 23.4274 14.3675 23.4374 14.8413C23.4391 14.9475 23.4391 15.0538 23.4374 15.16C23.4274 15.6325 23.6086 16.0975 23.9749 16.3988L25.2299 17.4325C25.7599 17.87 25.8974 18.6263 25.5549 19.22L23.9324 22.0287C23.7659 22.317 23.5026 22.5369 23.1893 22.6493C22.8759 22.7617 22.5329 22.7593 22.2211 22.6425L20.6999 22.0725C20.2561 21.9063 19.7624 21.9825 19.3549 22.2275C19.2643 22.2826 19.1726 22.336 19.0799 22.3875C18.6661 22.6162 18.3536 23.0062 18.2749 23.4737L18.0086 25.075C17.8961 25.7537 17.3086 26.25 16.6211 26.25H13.3786C12.6911 26.25 12.1049 25.7525 11.9911 25.075L11.7249 23.4737C11.6474 23.0062 11.3349 22.6163 10.9199 22.3863C10.8272 22.3351 10.7355 22.2822 10.6449 22.2275C10.2386 21.9825 9.74489 21.9063 9.29989 22.0725L7.77864 22.6425C7.46705 22.7594 7.1241 22.762 6.81077 22.6499C6.49743 22.5377 6.23403 22.3181 6.06739 22.03L4.44614 19.2212C4.27982 18.9329 4.2212 18.5948 4.28071 18.2673C4.34022 17.9398 4.51401 17.6439 4.77114 17.4325L6.02614 16.3988C6.39114 16.0988 6.57239 15.6325 6.56364 15.16C6.56169 15.0538 6.56169 14.9475 6.56364 14.8413C6.57239 14.3663 6.39114 13.9025 6.02614 13.6012L4.77114 12.5675C4.51432 12.3561 4.34073 12.0605 4.28123 11.7333C4.22173 11.406 4.28016 11.0683 4.44614 10.78L6.06739 7.97125C6.23387 7.68267 6.49741 7.46257 6.81103 7.35017C7.12466 7.23777 7.468 7.24037 7.77989 7.3575L9.29989 7.9275C9.74489 8.09375 10.2386 8.0175 10.6449 7.7725C10.7349 7.7175 10.8274 7.665 10.9199 7.6125C11.3349 7.38375 11.6474 6.99375 11.7249 6.52625L11.9924 4.925Z" stroke="#38B6FF" stroke-width="1.5" stroke-linecap="round" stroke-linejoin="round"/>
<path d="M18.75 15C18.75 15.9946 18.3549 16.9484 17.6517 17.6517C16.9484 18.3549 15.9946 18.75 15 18.75C14.0054 18.75 13.0516 18.3549 12.3483 17.6517C11.6451 16.9484 11.25 15.9946 11.25 15C11.25 14.0054 11.6451 13.0516 12.3483 12.3483C13.0516 11.6451 14.0054 11.25 15 11.25C15.9946 11.25 16.9484 11.6451 17.6517 12.3483C18.3549 13.0516 18.75 14.0054 18.75 15Z" stroke="#38B6FF" stroke-width="1.5" stroke-linecap="round" stroke-linejoin="round"/>
</svg>
