<svg width="30" height="30" viewBox="0 0 30 30" fill="none" xmlns="http://www.w3.org/2000/svg">
<g clip-path="url(#clip0_40_5)">
<path d="M15 0.25C23.1462 0.25 29.75 6.8538 29.75 15C29.75 23.1462 23.1462 29.75 15 29.75C6.8538 29.75 0.25 23.1462 0.25 15C0.25 6.8538 6.8538 0.25 15 0.25Z" fill="#E8E9E9" stroke="#ABB8C4" stroke-width="0.5"/>
<path d="M12.4998 17.5L14.9997 15M14.9997 15L17.4998 17.5M14.9997 15V20.625M19.9998 17.9643C20.7632 17.3338 21.2498 16.3799 21.2498 15.3125C21.2498 13.4141 19.7107 11.875 17.8122 11.875C17.6757 11.875 17.5479 11.8037 17.4786 11.686C16.6635 10.303 15.1588 9.375 13.4373 9.375C10.8484 9.375 8.74976 11.4736 8.74976 14.0625C8.74976 15.3538 9.27191 16.5232 10.1166 17.371" stroke="#38B6FF" stroke-width="1.66667" stroke-linecap="round" stroke-linejoin="round"/>
</g>
<defs>
<clipPath id="clip0_40_5">
<rect width="30" height="30" fill="white"/>
</clipPath>
</defs>
</svg>
